<svg version="1.1" id="Layer_1" xmlns="http://www.w3.org/2000/svg" xmlns:xlink="http://www.w3.org/1999/xlink" x="0px" y="0px"
	 viewBox="0 0 1368 936" enable-background="new 0 0 1368 936" xml:space="preserve">
<g>
	<g>
		<path fill="#00BA7C" d="M809.4,281.1h181.5v40.8H850.2v102h140.7v40.8H850.2v132.6h140.7v40.8H809.4V281.1z"/>
	</g>
	<g>
		<path fill="#00BA7C" d="M685.5,461.6h134.6c-1,101.5-60.7,184.1-161.7,184.1c-102,0-184.6-83.6-184.6-186.1
			c0-102.5,82.6-186.1,184.6-186.1c54.6,0,104,24.5,137.7,62.7L767,364.7c-26-30.6-65.3-50.5-108.6-50.5
			c-79.6,0-143.8,65.3-143.8,145.3s64.3,145.3,143.8,145.3c64.3,0,103.5-43.3,116.3-102.5h-89.2V461.6z"/>
	</g>
	<g>
		<path fill="#00BA7C" d="M214.3,643.3l161.7-357h15.8l162.2,357H509l-42.3-92.8H300.9l-41.8,92.8H214.3z M317.3,514.8h133.1
			l-66.3-146.9L317.3,514.8z"/>
	</g>
	<g>
		<path fill="#00BA7C" d="M251.5,328.5l-34.7,21.9c-7.6-20.9-29.6-36.2-55.6-36.2c-32.6,0-58.6,23.5-58.6,53
			c0,32.6,30.6,45.4,65.3,58.6c45.4,17.3,97.9,36.7,97.9,110.7c0,60.7-50,109.1-111.7,109.1c-57.1,0-103.5-40.8-110.7-94.9l40.3-8.2
			c3.1,35.2,33.1,62.2,70.4,62.2c39.3,0,70.9-30.1,70.9-68.3c0-45.4-38.2-59.7-71.4-72.4c-48.4-18.4-91.8-36.2-91.8-96.9
			c0-52,44.4-93.8,99.4-93.8C201.6,273.4,236.2,295.9,251.5,328.5z"/>
	</g>
	<g>
		<path fill="#414042" d="M1001.9,638.9v-29.6l33.8-36.7c81.4-86.5,118.2-132.5,118.7-186.2c0-36.1-15.7-69.6-63.3-69.6
			c-28.9,0-53,16.4-67.7,30.1l-13.7-34c22.1-20.8,53.4-36.1,90.2-36.1c68.6,0,97.6,52.6,97.6,103.5c0,65.7-42.7,118.8-109.8,191.1
			l-25.5,26.3v1.1h143.2v40H1001.9z"/>
	</g>
</g>
<g>
	<path d="M1244.2,286.3v-5.2h33v5.2h-13.7v46.2h-5.4v-46.2H1244.2z"/>
	<path d="M1288.1,290.8v41.7h-5.6v-51.3h7.7l12.1,43.7l12.1-43.7h7.7v51.3h-5.6v-41.7l-11.5,41.7h-5.5L1288.1,290.8z"/>
</g>
</svg>
